<?xml version="1.0" standalone="no"?>
<!DOCTYPE svg PUBLIC "-//W3C//DTD SVG 20010904//EN"
 "http://www.w3.org/TR/2001/REC-SVG-20010904/DTD/svg10.dtd">
<svg version="1.0" xmlns="http://www.w3.org/2000/svg"
 width="840.000000pt" height="880.000000pt" viewBox="0 0 840.000000 880.000000"
 preserveAspectRatio="xMidYMid meet">

<g transform="translate(0.000000,880.000000) scale(0.100000,-0.100000)"
fill="#000000" stroke="none">
<path d="M3940 8393 c-847 -64 -1594 -356 -2252 -881 -161 -128 -450 -415
-577 -571 -748 -922 -1049 -2065 -851 -3226 114 -666 393 -1282 826 -1825 138
-173 431 -466 604 -604 454 -362 963 -618 1511 -760 560 -144 1182 -164 1749
-55 661 127 1257 406 1791 840 146 119 429 402 548 548 748 921 1049 2065 851
3226 -114 666 -393 1282 -826 1825 -138 173 -431 466 -604 604 -636 507 -1364
800 -2170 871 -155 13 -473 18 -600 8z m1520 -1553 c90 -12 259 -55 295 -74
17 -9 36 -16 44 -16 18 0 154 -69 210 -106 24 -16 53 -34 64 -41 11 -6 50 -41
87 -78 67 -66 68 -67 111 -62 107 14 186 35 245 65 46 24 132 55 169 61 22 4
59 17 82 29 23 12 49 22 57 22 17 0 79 33 115 61 24 19 71 26 71 11 0 -5 -16
-34 -35 -66 -19 -32 -35 -63 -35 -68 0 -10 -68 -128 -79 -138 -4 -3 -19 -23
-34 -46 -29 -43 -182 -196 -256 -255 -75 -60 -29 -93 71 -50 24 10 69 21 101
25 32 4 82 16 111 26 29 9 71 21 95 25 23 4 76 22 116 41 41 19 78 34 84 34
13 0 15 -27 3 -32 -5 -1 -46 -50 -92 -108 -100 -124 -305 -329 -409 -409 l-74
-56 -3 -240 c-2 -132 -8 -265 -14 -295 -6 -30 -21 -118 -33 -195 -13 -77 -26
-145 -30 -152 -4 -6 -14 -45 -21 -85 -16 -78 -60 -240 -75 -273 -21 -47 -35
-91 -33 -103 2 -7 -6 -28 -17 -46 -12 -18 -21 -40 -21 -48 0 -28 -114 -274
-239 -516 -35 -67 -223 -348 -274 -409 -23 -28 -51 -63 -62 -79 -69 -99 -375
-404 -520 -518 -113 -89 -366 -256 -436 -289 -20 -9 -42 -23 -49 -32 -7 -8
-22 -15 -34 -15 -11 0 -32 -9 -46 -20 -14 -11 -29 -20 -34 -20 -5 0 -36 -13
-70 -29 -33 -15 -88 -40 -121 -54 -33 -14 -86 -37 -118 -51 -32 -14 -74 -28
-95 -32 -20 -3 -50 -12 -67 -19 -73 -32 -280 -85 -331 -85 -17 0 -47 -6 -65
-14 -35 -15 -97 -24 -329 -52 -107 -12 -197 -14 -440 -10 -320 6 -438 15 -560
45 -25 7 -70 15 -100 20 -49 8 -182 41 -282 71 -20 6 -50 17 -65 25 -15 8 -34
15 -40 15 -41 0 -268 91 -403 161 -41 21 -99 50 -129 64 -59 27 -156 89 -166
105 -7 12 -19 11 190 11 212 -1 399 19 508 54 26 9 78 20 115 24 37 5 90 18
117 29 28 10 73 27 100 36 118 42 155 57 242 100 51 25 113 61 137 79 24 17
88 59 141 92 124 77 150 98 142 117 -4 12 -28 17 -109 20 -74 3 -119 10 -158
25 -30 12 -74 26 -97 32 -23 7 -48 17 -55 24 -15 14 -103 68 -130 79 -10 4
-51 30 -92 58 -42 27 -79 50 -84 50 -16 0 -144 131 -195 199 -41 55 -78 124
-148 277 -22 47 -24 80 -7 90 6 4 108 8 227 8 203 2 241 5 241 25 0 5 -46 23
-102 40 -57 17 -110 35 -118 40 -202 109 -294 181 -399 311 -100 125 -131 167
-131 178 0 5 -6 15 -14 21 -8 7 -17 24 -21 38 -3 15 -15 38 -25 52 -10 14 -22
42 -28 61 -5 19 -20 60 -32 90 -27 64 -35 105 -55 255 -9 70 -10 114 -4 120 6
6 24 2 52 -12 87 -45 142 -63 206 -68 36 -2 89 -11 116 -20 52 -15 135 -20
135 -7 0 4 -17 18 -36 32 -85 60 -149 130 -239 264 -52 78 -95 150 -95 161 0
10 -7 26 -15 35 -13 15 -53 119 -77 200 -41 144 -46 535 -8 625 5 11 23 58 40
105 18 47 40 99 51 116 10 17 19 39 19 48 0 26 37 19 57 -11 38 -57 314 -330
426 -422 166 -135 211 -170 220 -170 4 -1 38 -22 75 -48 76 -54 70 -51 212
-135 57 -35 114 -68 125 -75 11 -7 27 -15 35 -18 8 -4 41 -20 73 -36 32 -16
63 -29 69 -29 5 0 21 -9 35 -20 14 -11 33 -20 41 -20 15 0 132 -43 212 -78 19
-8 64 -23 100 -33 36 -9 115 -31 175 -48 61 -17 139 -36 175 -42 36 -5 83 -14
106 -19 22 -5 101 -14 175 -19 74 -6 152 -13 175 -16 25 -2 48 1 59 8 15 12
16 20 4 88 -10 59 -10 108 -1 230 6 85 16 168 21 184 6 17 19 67 31 113 23 93
95 244 176 367 51 78 241 275 264 275 6 0 32 15 59 34 63 45 198 116 219 116
10 0 31 7 47 16 34 18 203 62 285 73 77 11 174 12 250 1z"/>
</g>
</svg>
