<?xml version="1.0" standalone="no"?>
<!DOCTYPE svg PUBLIC "-//W3C//DTD SVG 20010904//EN"
 "http://www.w3.org/TR/2001/REC-SVG-20010904/DTD/svg10.dtd">
<svg version="1.0" xmlns="http://www.w3.org/2000/svg"
 width="512.000000pt" height="512.000000pt" viewBox="0 0 512.000000 512.000000"
 preserveAspectRatio="xMidYMid meet">

<g transform="translate(0.000000,512.000000) scale(0.100000,-0.100000)"
fill="#000000" stroke="none">
<path d="M2315 5109 c-605 -62 -1147 -321 -1574 -750 -397 -399 -639 -897
-723 -1484 -17 -118 -17 -512 0 -630 70 -493 249 -916 544 -1284 92 -115 271
-295 387 -388 308 -249 714 -443 1081 -517 214 -43 295 -51 530 -51 236 0 333
10 532 51 881 184 1614 842 1898 1702 92 278 125 491 125 802 0 301 -32 513
-116 775 -124 390 -330 728 -622 1024 -398 403 -893 653 -1462 737 -123 18
-478 26 -600 13z m1273 -937 c326 -100 541 -337 597 -658 13 -73 15 -227 15
-953 0 -528 -4 -893 -10 -936 -23 -159 -103 -324 -213 -441 -105 -113 -217
-182 -374 -231 l-88 -28 -950 0 c-877 0 -955 1 -1014 18 -308 85 -519 292
-603 592 -22 80 -22 84 -26 975 -2 582 0 922 7 973 24 181 101 336 231 468
129 131 289 213 465 238 33 5 472 8 975 7 l915 -2 73 -22z"/>
<path d="M1593 3945 c-204 -55 -365 -218 -417 -421 -14 -54 -16 -175 -16 -966
0 -782 2 -912 15 -963 51 -193 199 -351 386 -410 l80 -25 919 0 919 0 79 25
c188 59 337 215 387 405 23 85 22 1849 0 1935 -53 204 -216 367 -420 420 -51
13 -180 15 -970 14 -748 0 -919 -3 -962 -14z m2025 -252 c28 -17 59 -48 77
-77 26 -43 30 -59 30 -120 -1 -81 -15 -116 -72 -171 -44 -43 -127 -70 -185
-61 -207 33 -277 289 -114 417 73 57 183 62 264 12z m-858 -339 c226 -57 428
-221 534 -431 14 -28 38 -91 52 -140 36 -119 38 -306 5 -428 -43 -160 -119
-285 -239 -396 -106 -98 -213 -156 -363 -196 -89 -24 -291 -24 -378 0 -164 45
-265 102 -382 217 -242 238 -312 576 -185 892 85 209 269 383 486 460 139 50
328 58 470 22z"/>
<path d="M2383 3116 c-90 -29 -146 -62 -217 -126 -124 -114 -186 -257 -186
-429 0 -258 149 -467 394 -553 150 -52 335 -35 473 44 237 134 351 424 269
684 -60 189 -216 339 -406 389 -87 23 -240 19 -327 -9z"/>
</g>
</svg>
