<?xml version="1.0" standalone="no"?>
<!DOCTYPE svg PUBLIC "-//W3C//DTD SVG 20010904//EN"
 "http://www.w3.org/TR/2001/REC-SVG-20010904/DTD/svg10.dtd">
<svg version="1.0" xmlns="http://www.w3.org/2000/svg"
 width="225.000000pt" height="225.000000pt" viewBox="0 0 225.000000 225.000000"
 preserveAspectRatio="xMidYMid meet">

<g transform="translate(0.000000,225.000000) scale(0.100000,-0.100000)"
fill="#000000" stroke="none">
<path d="M944 2166 c-345 -66 -623 -275 -769 -581 -68 -141 -95 -253 -102
-420 -4 -119 -2 -156 16 -244 89 -429 404 -743 832 -832 140 -28 328 -23 471
14 367 96 656 384 755 755 24 86 26 116 27 267 0 152 -3 180 -26 266 -101 373
-388 659 -757 756 -118 31 -334 40 -447 19z m-144 -341 c75 -39 79 -161 8
-207 -42 -27 -76 -30 -122 -10 -66 30 -93 100 -61 162 34 65 109 89 175 55z
m60 -750 l0 -466 -132 3 -133 3 0 455 c-1 250 1 458 3 463 2 4 61 7 133 7
l129 0 0 -465z m400 425 c0 -22 1 -40 3 -40 1 0 28 13 59 29 161 82 321 57
400 -60 57 -85 61 -114 66 -481 l4 -338 -136 0 -136 0 0 314 0 315 -24 28
c-21 24 -31 28 -78 27 -64 -1 -112 -24 -138 -67 -19 -30 -20 -52 -20 -324 l0
-293 -135 0 -135 0 0 465 0 465 135 0 135 0 0 -40z"/>
</g>
</svg>
