<?xml version="1.0" standalone="no"?>
<!DOCTYPE svg PUBLIC "-//W3C//DTD SVG 20010904//EN"
 "http://www.w3.org/TR/2001/REC-SVG-20010904/DTD/svg10.dtd">
<svg version="1.0" xmlns="http://www.w3.org/2000/svg"
 width="225.000000pt" height="225.000000pt" viewBox="0 0 225.000000 225.000000"
 preserveAspectRatio="xMidYMid meet">

<g transform="translate(0.000000,225.000000) scale(0.100000,-0.100000)"
fill="#000000" stroke="none">
<path d="M1045 1794 c-11 -2 -45 -9 -75 -15 -126 -25 -278 -119 -365 -226 -53
-64 -117 -193 -136 -273 -17 -71 -17 -239 0 -310 19 -81 83 -207 138 -272 88
-105 257 -213 321 -206 26 3 27 5 30 69 l3 67 -75 4 c-89 4 -118 21 -158 94
-15 27 -44 66 -65 87 -28 29 -34 40 -24 46 30 19 97 -18 130 -72 11 -19 32
-39 46 -45 29 -13 114 -16 130 -4 9 6 32 58 38 86 1 5 -20 14 -48 21 -73 17
-128 49 -169 97 -46 53 -66 120 -66 218 0 63 5 85 26 126 21 40 26 64 27 134
1 47 6 91 11 98 12 19 68 7 137 -29 50 -27 59 -29 100 -20 57 13 191 13 248 0
41 -9 50 -7 100 20 69 36 125 48 137 29 5 -7 10 -51 11 -98 1 -70 6 -94 27
-134 21 -41 26 -63 26 -126 0 -115 -21 -175 -85 -237 -51 -50 -91 -68 -187
-88 l-28 -5 20 -33 c17 -27 20 -50 20 -158 0 -153 5 -162 78 -135 140 51 282
180 350 317 59 119 75 198 69 339 -7 189 -62 315 -194 447 -120 119 -306 195
-470 192 -32 -1 -67 -3 -78 -5z"/>
</g>
</svg>
