<?xml version="1.0" standalone="no"?>
<!DOCTYPE svg PUBLIC "-//W3C//DTD SVG 20010904//EN"
 "http://www.w3.org/TR/2001/REC-SVG-20010904/DTD/svg10.dtd">
<svg version="1.0" xmlns="http://www.w3.org/2000/svg"
 width="225.000000pt" height="225.000000pt" viewBox="0 0 225.000000 225.000000"
 preserveAspectRatio="xMidYMid meet">

<g transform="translate(0.000000,225.000000) scale(0.100000,-0.100000)"
fill="#000000" stroke="none">
<path d="M948 2035 c-332 -63 -623 -325 -702 -633 -67 -258 -24 -525 117 -731
47 -68 155 -179 223 -227 69 -50 221 -124 252 -124 41 0 52 25 52 118 l0 87
-82 0 c-46 0 -95 3 -110 7 -42 12 -87 56 -117 117 -30 58 -59 93 -105 124 -14
10 -26 22 -26 27 0 15 68 12 99 -4 29 -16 92 -81 111 -115 14 -28 81 -61 122
-61 18 0 50 5 70 10 30 9 39 17 49 48 7 20 18 47 26 59 14 21 13 23 -14 28
-93 20 -121 29 -172 55 -96 48 -157 131 -186 252 -29 125 -15 237 43 328 21
33 26 51 21 70 -17 60 -2 201 23 216 15 10 140 -33 192 -66 47 -30 49 -31 105
-18 71 15 270 16 338 0 51 -11 53 -11 134 30 49 24 103 43 130 46 l46 4 12
-45 c12 -52 14 -142 2 -172 -6 -14 -1 -29 16 -52 44 -57 63 -125 63 -221 0
-184 -64 -303 -199 -372 -53 -26 -83 -36 -172 -54 l-26 -6 23 -47 c22 -43 24
-58 24 -208 0 -189 4 -202 66 -192 62 10 213 92 293 159 135 114 247 291 292
463 30 114 31 307 1 428 -49 199 -166 381 -321 499 -85 64 -224 132 -326 158
-105 28 -283 35 -387 15z"/>
<path d="M530 770 c0 -5 5 -10 10 -10 6 0 10 5 10 10 0 6 -4 10 -10 10 -5 0
-10 -4 -10 -10z"/>
<path d="M570 741 c0 -5 5 -13 10 -16 6 -3 10 -2 10 4 0 5 -4 13 -10 16 -5 3
-10 2 -10 -4z"/>
<path d="M600 690 c0 -5 7 -10 15 -10 8 0 15 5 15 10 0 6 -7 10 -15 10 -8 0
-15 -4 -15 -10z"/>
<path d="M650 635 c7 -8 16 -12 21 -9 13 8 1 24 -18 24 -13 0 -13 -3 -3 -15z"/>
<path d="M856 613 c-11 -11 -6 -23 9 -23 8 0 15 4 15 9 0 13 -16 22 -24 14z"/>
<path d="M705 600 c3 -5 13 -10 21 -10 8 0 14 5 14 10 0 6 -9 10 -21 10 -11 0
-17 -4 -14 -10z"/>
<path d="M780 590 c0 -5 7 -10 15 -10 8 0 15 5 15 10 0 6 -7 10 -15 10 -8 0
-15 -4 -15 -10z"/>
</g>
</svg>
